<svg width="24" height="24" viewBox="0 0 24 24" fill="none" xmlns="http://www.w3.org/2000/svg">
<rect width="24" height="24" rx="2" fill="#EEEEEE"/>
<rect x="7.19998" y="8" width="1.6" height="1.6" fill="#898989"/>
<rect x="7.19998" y="6.40039" width="1.6" height="1.6" fill="#898989"/>
<rect x="8.79996" y="6.40039" width="1.6" height="1.6" fill="#898989"/>
<rect x="8.79997" y="4.7998" width="1.6" height="1.6" fill="#898989"/>
<rect x="10.4" y="4.7998" width="1.6" height="1.6" fill="#898989"/>
<rect x="13.6" y="4.7998" width="1.6" height="1.6" fill="#898989"/>
<rect x="15.2" y="4.7998" width="1.6" height="1.6" fill="#898989"/>
<rect x="15.2" y="6.40039" width="1.6" height="1.6" fill="#898989"/>
<rect x="16.8" y="6.40039" width="1.6" height="1.6" fill="#898989"/>
<rect x="16.8" y="8" width="1.6" height="1.6" fill="#898989"/>
<rect x="15.2" y="8" width="1.6" height="1.6" fill="#898989"/>
<rect x="15.2" y="9.59961" width="1.6" height="1.6" fill="#898989"/>
<rect x="15.2" y="11.2002" width="1.6" height="1.6" fill="#898989"/>
<rect x="13.6" y="11.2002" width="1.6" height="1.6" fill="#898989"/>
<rect x="12" y="11.2002" width="1.6" height="1.6" fill="#898989"/>
<rect x="12" y="12.7998" width="1.6" height="1.6" fill="#898989"/>
<rect x="12" y="14.4004" width="1.6" height="1.6" fill="#898989"/>
<rect x="12" y="17.5996" width="1.6" height="1.6" fill="#898989"/>
<rect x="10.4" y="17.5996" width="1.6" height="1.6" fill="#898989"/>
<rect x="10.4" y="19.2002" width="1.6" height="1.6" fill="#898989"/>
<rect x="12" y="19.2002" width="1.6" height="1.6" fill="#898989"/>
<rect x="13.6" y="9.59961" width="1.6" height="1.6" fill="#898989"/>
<rect x="8.79997" y="8" width="1.6" height="1.6" fill="#898989"/>
</svg>
